<svg id="Слой_1" data-name="Слой 1" xmlns="http://www.w3.org/2000/svg" width="20.21cm" height="8.41cm" viewBox="0 0 573 238.39"><defs><style>.cls-1{fill:#fff;}</style></defs><path class="cls-1" d="M381.63,475.86H363.84L348,491.6c-8.33,8.28-16.18,17-25,24.85-2.92,2.58-5.27,5.29-9.3,5.59-7,.52-13.29-7.81-17.65-12.19-2.38-2.4-2.92-4.59-6.39-4.46-5.76.22-6.78-.06-12.55.15h-.06c-.64,0-1.27,0-1.9.08a14.35,14.35,0,0,0-2.61.34,1.12,1.12,0,0,0-.52.19,1.33,1.33,0,0,0-.23.3,1,1,0,0,0-.12.35,5.24,5.24,0,0,0,0,1.48,6,6,0,0,0,1.35,2.65c2.43,2.84,5.05,5,7.72,7.59s5.62,5.22,8.4,8C294,531.31,299.48,535.84,306,538a21.43,21.43,0,0,0,16.16-.68,47.46,47.46,0,0,0,6.88-3.73,61.33,61.33,0,0,0,5.83-5.1c4.53-4.46,9.45-9.11,14-13.58,5.28-5.23,10.73-10.89,16-16.17,4.48-4.5,8.82-8.68,13.2-13.29,1.44-1.52,3.2-2.82,4.58-4.39a4.12,4.12,0,0,0,1-2.94A3.11,3.11,0,0,0,381.63,475.86Z" transform="translate(-11 -300.89)"/><path class="cls-1" d="M244.57,364.32h17.78l15.84-15.75c8.33-8.28,16.18-17.05,25-24.86,2.92-2.57,5.27-5.29,9.3-5.58,7-.52,13.29,7.81,17.65,12.19,2.38,2.4,2.92,4.59,6.39,4.45,5.76-.22,6.78.07,12.54-.14h.07c.63,0,1.27,0,1.9-.08a15.29,15.29,0,0,0,2.61-.34,1.14,1.14,0,0,0,.51-.2,1,1,0,0,0,.24-.29,1,1,0,0,0,.12-.35,5.72,5.72,0,0,0,0-1.49,6.11,6.11,0,0,0-1.35-2.64c-2.43-2.84-5-5-7.73-7.59s-5.62-5.22-8.39-8c-4.88-4.82-10.32-9.35-16.81-11.55-5.19-1.74-11.19-1.78-16.16.69a47,47,0,0,0-6.88,3.73,60.12,60.12,0,0,0-5.83,5.1c-4.54,4.45-9.45,9.11-14,13.58-5.28,5.23-10.73,10.89-16,16.16-4.48,4.5-8.83,8.68-13.2,13.29-1.44,1.52-3.2,2.83-4.59,4.41a4.14,4.14,0,0,0-1,2.93A3.16,3.16,0,0,0,244.57,364.32Z" transform="translate(-11 -300.89)"/><path class="cls-1" d="M217.67,464.2a2.05,2.05,0,0,1,.84-.88,12.17,12.17,0,0,1,2.14-.9,10.27,10.27,0,0,0,2.51-1.12,2.91,2.91,0,0,0,1.12-1.33,5.91,5.91,0,0,0,.28-2,4.15,4.15,0,0,0-.47-2.16,2.35,2.35,0,0,0-1.37-1.05,8.31,8.31,0,0,0-2.36-.27h-4.64v1.67h4.64a5.31,5.31,0,0,1,1.49.16,1.19,1.19,0,0,1,.74.54,2.44,2.44,0,0,1,.24,1.21,2.69,2.69,0,0,1-.21,1.15,2.2,2.2,0,0,1-.84.82,10,10,0,0,1-2,.89,12,12,0,0,0-2.76,1.26,2.65,2.65,0,0,0-1.09,1.36,7.31,7.31,0,0,0-.24,2.14v2.71h8.77v-1.67h-7v-1A3.91,3.91,0,0,1,217.67,464.2Z" transform="translate(-11 -300.89)"/><path class="cls-1" d="M236.62,455a5.76,5.76,0,0,0-2.45-.43h-1.09a5.23,5.23,0,0,0-2.56.52,2.9,2.9,0,0,0-1.33,1.55,7.79,7.79,0,0,0-.38,2.65v4.43a7.57,7.57,0,0,0,.43,2.81,2.69,2.69,0,0,0,1.38,1.47,5.82,5.82,0,0,0,2.46.44h1.09a5.3,5.3,0,0,0,2.55-.52,2.9,2.9,0,0,0,1.33-1.55,7.86,7.86,0,0,0,.37-2.65v-4.43a7.37,7.37,0,0,0-.43-2.81A2.73,2.73,0,0,0,236.62,455Zm0,4.29v4.43a5.71,5.71,0,0,1-.25,1.91,1.49,1.49,0,0,1-.84.88,5,5,0,0,1-1.9.27,5.36,5.36,0,0,1-2-.27,1.49,1.49,0,0,1-.86-.88,5.46,5.46,0,0,1-.25-1.91v-4.43a5.42,5.42,0,0,1,.25-1.91,1.47,1.47,0,0,1,.86-.88,5.36,5.36,0,0,1,2-.27,5.06,5.06,0,0,1,1.9.27,1.46,1.46,0,0,1,.84.88A5.67,5.67,0,0,1,236.67,459.27Z" transform="translate(-11 -300.89)"/><path class="cls-1" d="M246,454.55H242.4v1.66h2.81c.25,0,.35.05.37.08s.08.14.08.38v11.75h1.74V456a1.29,1.29,0,0,0-1.45-1.44Z" transform="translate(-11 -300.89)"/><path class="cls-1" d="M255.18,454.55h-3.54v1.66h2.81c.25,0,.34.05.37.08s.08.14.08.38v11.75h1.74V456a1.45,1.45,0,0,0-.37-1.08A1.48,1.48,0,0,0,255.18,454.55Z" transform="translate(-11 -300.89)"/><rect class="cls-1" x="271.17" y="153.66" width="1.73" height="13.87"/><polygon class="cls-1" points="282.73 167.53 282.73 155.32 286.81 155.32 286.81 153.66 276.89 153.66 276.89 155.32 280.99 155.32 280.99 167.53 282.73 167.53"/><path class="cls-1" d="M306.27,462.17h1.14a1.1,1.1,0,0,1,.45.08,1,1,0,0,1,.31.3l4.38,5.83,0,0h2.13l-5.07-6.72-.17-.26a.4.4,0,0,1-.05-.15.43.43,0,0,1,.06-.18,2.12,2.12,0,0,1,.18-.29l4.35-6.27h-2L308.22,460a.89.89,0,0,1-.3.31,1,1,0,0,1-.44.07h-1.21v-5.84h-1.73v13.87h1.73Z" transform="translate(-11 -300.89)"/><path class="cls-1" d="M325.65,455a6.15,6.15,0,0,0-2.63-.48h-.64a6.07,6.07,0,0,0-2.62.48,3.1,3.1,0,0,0-1.51,1.54,6.69,6.69,0,0,0-.47,2.71v4.54a6.63,6.63,0,0,0,.47,2.71,3.1,3.1,0,0,0,1.51,1.54,6.07,6.07,0,0,0,2.62.48H323a6.15,6.15,0,0,0,2.63-.48,3.08,3.08,0,0,0,1.5-1.54,6.63,6.63,0,0,0,.47-2.71v-4.54a6.69,6.69,0,0,0-.47-2.71A3.08,3.08,0,0,0,325.65,455Zm.24,4.25v4.54a4.41,4.41,0,0,1-.31,1.85,1.84,1.84,0,0,1-1,.95,6.4,6.4,0,0,1-3.81,0,1.82,1.82,0,0,1-1-.95,4.6,4.6,0,0,1-.3-1.85v-4.54a4.6,4.6,0,0,1,.3-1.85,1.84,1.84,0,0,1,1-.94,6.4,6.4,0,0,1,3.81,0,1.86,1.86,0,0,1,1,.94A4.41,4.41,0,0,1,325.89,459.21Z" transform="translate(-11 -300.89)"/><path class="cls-1" d="M346.46,468.42V456.09a1.41,1.41,0,0,0-1.6-1.58,1.82,1.82,0,0,0-1.19.34,2.83,2.83,0,0,0-.72,1L339.42,463c-.06.11-.1.12-.1.12s0,0-.08-.11l-3.54-7.14a3,3,0,0,0-.72-1,1.85,1.85,0,0,0-1.2-.35,1.41,1.41,0,0,0-1.59,1.58v12.33h1.73v-12c0-.1,0-.1.07-.1a.05.05,0,0,1,0,0l.07.13,3.51,7.16a3.13,3.13,0,0,0,.69,1,1.44,1.44,0,0,0,1,.33,1.49,1.49,0,0,0,1-.33,2.85,2.85,0,0,0,.7-1l3.55-7.18.07-.11a.05.05,0,0,1,0,0s.06,0,.06.1v12Z" transform="translate(-11 -300.89)"/><path class="cls-1" d="M361.1,468.42V455.8a1.37,1.37,0,0,0-.34-.89,1.46,1.46,0,0,0-1.09-.36h-6.93a1.45,1.45,0,0,0-1,.36,1.48,1.48,0,0,0-.36,1.08v12.43h1.73V456.67c0-.24,0-.34.09-.38a.29.29,0,0,1,.16-.07h5.75a.7.7,0,0,1,.19.06.42.42,0,0,1,.07.24v11.9Z" transform="translate(-11 -300.89)"/><path class="cls-1" d="M370.67,454.52a1.74,1.74,0,0,0-1.17.36,2.05,2.05,0,0,0-.59,1.06l-4.19,12.36,0,.12h1.86l4.06-12.05c0-.06,0-.07.07-.07s.06,0,.09.08l4,12,0,.07h1.84L372.42,456a2,2,0,0,0-.61-1.1A1.71,1.71,0,0,0,370.67,454.52Z" transform="translate(-11 -300.89)"/><polygon class="cls-1" points="377.44 159.49 371.18 159.49 371.18 153.66 369.45 153.66 369.45 167.53 371.18 167.53 371.18 161.17 377.44 161.17 377.44 167.53 379.17 167.53 379.17 153.66 377.44 153.66 377.44 159.49"/><path class="cls-1" d="M404.37,454.49a1.69,1.69,0,0,0-1,.32,3.52,3.52,0,0,0-.85,1.1L397,466.59a.45.45,0,0,1-.1.15c-.05.06-.08,0-.08,0a.52.52,0,0,1,0-.15V454.56h-1.73v12.06a2.15,2.15,0,0,0,.37,1.44,1.62,1.62,0,0,0,1.27.43,1.89,1.89,0,0,0,1.13-.34,3.11,3.11,0,0,0,.83-1.14l5.43-10.6a.5.5,0,0,1,.09-.15.08.08,0,0,1,.07,0,.36.36,0,0,1,0,.15v12h1.75v-12a2.22,2.22,0,0,0-.38-1.46A1.67,1.67,0,0,0,404.37,454.49Z" transform="translate(-11 -300.89)"/><path class="cls-1" d="M419.17,454.55h-3.35a6.75,6.75,0,0,0-2.44.36A2.54,2.54,0,0,0,412,456.1a4.82,4.82,0,0,0-.42,2.19v1.32a3.47,3.47,0,0,0,.7,2.35,3.64,3.64,0,0,0,2.15,1l-3.58,5.46h2l4.28-6.73h-1a6.07,6.07,0,0,1-1.7-.19,1.46,1.46,0,0,1-.83-.62,2.76,2.76,0,0,1-.24-1.27v-1.32a2.67,2.67,0,0,1,.23-1.26,1.29,1.29,0,0,1,.78-.63,5.39,5.39,0,0,1,1.65-.19h2.42c.25,0,.34.05.37.08s.08.14.08.38v11.75h1.73V456a1.52,1.52,0,0,0-.35-1.08A1.5,1.5,0,0,0,419.17,454.55Z" transform="translate(-11 -300.89)"/><circle class="cls-1" cx="258.09" cy="160.92" r="4.36"/><path class="cls-1" d="M65.66,404.85c-.08-.12-.11-.21-.12-.21a1.94,1.94,0,0,1,.16-.37,5.73,5.73,0,0,1,.67-1l17.92-25.81H74.68L59.5,399.18a2.77,2.77,0,0,1-.93,1,3.14,3.14,0,0,1-1.38.21h-4V377.41H44.9v22.95h-4a3.24,3.24,0,0,1-1.39-.21,2.76,2.76,0,0,1-.93-1L23.4,377.41H13.79l17.94,25.84a7.24,7.24,0,0,1,.65,1c.11.23.15.34.16.35a1.19,1.19,0,0,1-.12.24c-.16.28-.38.6-.63.95L11,433.36H21.23L38.77,410a2.72,2.72,0,0,1,1-.94,3.25,3.25,0,0,1,1.43-.22H44.9v24.51h8.27V408.85h3.74a3.27,3.27,0,0,1,1.44.22,2.74,2.74,0,0,1,1,1l17.53,23.33H87.08L66.3,405.81A11.36,11.36,0,0,1,65.66,404.85Z" transform="translate(-11 -300.89)"/><path class="cls-1" d="M115.7,394.59h-2l-.18,0a5.07,5.07,0,0,0-2.76,1.32,8,8,0,0,0-1.43,1.69l-1.24,2.28c-5.54,10.62-8.43,16.13-9.9,18.92V394.58H89.88l-.06,28.51v1.58c0,2.72.42,4.6,1.26,5.71a4.81,4.81,0,0,0,3.64,1.88h2a6.13,6.13,0,0,0,3.17-1.38,8.37,8.37,0,0,0,1.49-1.81l.07-.13c.21-.45.46-1,.78-1.57.21-.4.48-.88.82-1.5l.78-1.54c.76-1.4,1.37-2.53,1.84-3.43,1.45-2.79,2.7-5.15,3.71-7q1.77-3.39,2.81-5.34v23.72h8.27V400.46a7.77,7.77,0,0,0-1.27-4A5,5,0,0,0,115.7,394.59Z" transform="translate(-11 -300.89)"/><path class="cls-1" d="M161.86,395.94c-2.26-1.62-5.64-2.4-10.32-2.4h-8a23.4,23.4,0,0,0-7.93,1.14,11.7,11.7,0,0,0-2.41,1.28,8.15,8.15,0,0,0-2.85,4.12,12.77,12.77,0,0,0-.65,4v18.69a3.13,3.13,0,0,1-.48,1.36,2.76,2.76,0,0,1-1.69,1,22.47,22.47,0,0,1-2.26.26h-1.38v8.09l1.13,0c4.24-.11,7.34-.89,9.5-2.42s3.16-3.95,3.45-7.24v-19a3,3,0,0,1,.54-1.86,2.76,2.76,0,0,1,1.63-1l14.5,0,.25,0a2.85,2.85,0,0,1,1.67,1,3.13,3.13,0,0,1,.5,1.48v29.08h8.27v-30C165.09,400,163.93,397.48,161.86,395.94Z" transform="translate(-11 -300.89)"/><path class="cls-1" d="M221,424.18a24.85,24.85,0,0,0,.85-6.81v-7.84a25.22,25.22,0,0,0-.85-6.81h0a14.43,14.43,0,0,0-2.41-4.89c-2.24-2.85-5.55-4.29-9.83-4.29h-.27a12.94,12.94,0,0,0-5.18,1,9.73,9.73,0,0,0-1.58.87V377.51h-8.27v17.8a10.09,10.09,0,0,0-1.48-.83,13.26,13.26,0,0,0-5.16-1h-.32c-4.32,0-7.63,1.45-9.84,4.29a14.5,14.5,0,0,0-2.63,5.53,26.07,26.07,0,0,0-.67,6.18v7.84a25.57,25.57,0,0,0,.68,6.18,14.29,14.29,0,0,0,2.61,5.52c2.22,2.85,5.53,4.3,9.85,4.3h.32a13.23,13.23,0,0,0,5.16-.95,8.37,8.37,0,0,0,1.48-.79v17.81h8.27v-17.9a10.23,10.23,0,0,0,1.59.88,13,13,0,0,0,5.17.95h.27c4.28,0,7.59-1.44,9.84-4.3A14.42,14.42,0,0,0,221,424.18ZM193.47,407v13a11.83,11.83,0,0,1-.48,2.4,5.54,5.54,0,0,1-.94,1.8l0,0a2.39,2.39,0,0,1-1,.74l-.07,0a5.63,5.63,0,0,1-2.5.46h-1.95l-.65-.05a4.9,4.9,0,0,1-2.09-.46,2.85,2.85,0,0,1-.89-.72c-1-1.34-1.55-3.63-1.55-6.81v-7.84c0-3.14.52-5.42,1.55-6.76a2.85,2.85,0,0,1,.83-.75,6.52,6.52,0,0,1,2.15-.48h2.6a6.11,6.11,0,0,1,2.57.45,2.22,2.22,0,0,1,1,.81,5.7,5.7,0,0,1,.94,1.79A12.1,12.1,0,0,1,193.47,407Zm20.44,2.57v7.84c0,3.17-.54,5.46-1.58,6.77a3,3,0,0,1-.93.77,4.75,4.75,0,0,1-2.08.46l-.6,0h-1.94a6,6,0,0,1-2.6-.48,2.72,2.72,0,0,1-1-.76,6.2,6.2,0,0,1-1.05-2.25,19.27,19.27,0,0,1-.39-1.93V407a18.05,18.05,0,0,1,.4-2,5.58,5.58,0,0,1,1-2.23,2.61,2.61,0,0,1,1-.81,6.46,6.46,0,0,1,2.61-.44h2.59a5.7,5.7,0,0,1,2,.46,2.66,2.66,0,0,1,.9.79C213.37,404.12,213.91,406.39,213.91,409.53Z" transform="translate(-11 -300.89)"/><path class="cls-1" d="M247.45,393.53h-2.58c-5.37,0-9.52,1.41-12.33,4.19s-4.26,6.76-4.26,11.81v7.85c0,5,1.44,9,4.26,11.8s7,4.19,12.33,4.19h2.58c5.36,0,9.51-1.41,12.32-4.19s4.26-6.76,4.26-11.8v-7.85c0-5-1.43-9-4.26-11.81S252.81,393.53,247.45,393.53Zm8.3,16.54v6.77a12.74,12.74,0,0,1-.81,4.94,5.13,5.13,0,0,1-2.71,2.61,15,15,0,0,1-6,1,15.19,15.19,0,0,1-6.07-1,5.23,5.23,0,0,1-2.74-2.63,12.19,12.19,0,0,1-.84-4.92v-6.77a12.24,12.24,0,0,1,.84-4.93,5.23,5.23,0,0,1,2.74-2.63,15.19,15.19,0,0,1,6.07-1,15,15,0,0,1,6,1,5.09,5.09,0,0,1,2.7,2.62A12.47,12.47,0,0,1,255.75,410.07Z" transform="translate(-11 -300.89)"/><polygon class="cls-1" points="296.5 132.48 296.5 92.65 288.22 92.65 288.22 108.39 269.13 108.39 269.13 92.65 260.86 92.65 260.86 132.48 269.13 132.48 269.13 116.67 288.22 116.67 288.22 132.48 296.5 132.48"/><path class="cls-1" d="M337.68,433.37l0,0a.68.68,0,0,1,0,.12v5.34H346v-8.7a5.82,5.82,0,0,0-1.54-3.54,4.81,4.81,0,0,0-2.32-1.31V398.65a5.8,5.8,0,0,0-1.53-3.53,5.69,5.69,0,0,0-3.63-1.63H319.47A5.9,5.9,0,0,0,316,395l-.08.08a5.41,5.41,0,0,0-1.57,3.21l0,27a5.74,5.74,0,0,0-2.31,1.23l-.11.11a5.53,5.53,0,0,0-1.42,2.74l-.07.46v9.05h8.27v-5.49h19Zm-3.81-31.46v23.18H322.58V401.76h11.24A.46.46,0,0,1,333.87,401.91Z" transform="translate(-11 -300.89)"/><path class="cls-1" d="M350.67,385.36a27.22,27.22,0,0,0-1.48,10v20.33a26.21,26.21,0,0,0,1.48,9.81,9.42,9.42,0,0,0,5,5.16q3.5,1.59,9.68,1.59h18v-5.81H368.07a26.45,26.45,0,0,1-8-.91,6,6,0,0,1-3.74-3.17,16.48,16.48,0,0,1-1-6.67V395.38a17.35,17.35,0,0,1,1-6.87,6.06,6.06,0,0,1,3.74-3.25,25.6,25.6,0,0,1,8-.95h15.26v-5.8h-18c-4.12,0-7.35.53-9.68,1.61A9.5,9.5,0,0,0,350.67,385.36Z" transform="translate(-11 -300.89)"/><path class="cls-1" d="M409.54,394.63H407c-5.31,0-9.21,1.22-11.72,3.63s-3.76,6.18-3.76,11.27v7.85q0,7.47,3.84,11.18T407,432.27h15.16v-5.86H408.25a25,25,0,0,1-7-.62,4.36,4.36,0,0,1-3-2.63,18.55,18.55,0,0,1-.78-6.32v-1H425v-6.29q0-7.63-3.79-11.27C418.7,395.85,414.81,394.63,409.54,394.63ZM419,410.54h-21.4v-.48a18.31,18.31,0,0,1,.78-6.26,4.45,4.45,0,0,1,3-2.66,25.32,25.32,0,0,1,7-.7,26,26,0,0,1,6.94.67,4.42,4.42,0,0,1,2.93,2.5,16.28,16.28,0,0,1,.78,5.92Z" transform="translate(-11 -300.89)"/><path class="cls-1" d="M462,396.14a19.6,19.6,0,0,0-9.22-1.83c-3.58,0-6.4.56-8.44,1.7a10.05,10.05,0,0,0-4.52,5.61l-.7-7h-4.41v53.76h6.19V427.65a9.35,9.35,0,0,0,4.52,3.76,23.87,23.87,0,0,0,16.58-.65,10.61,10.61,0,0,0,4.94-6,42.37,42.37,0,0,0,0-22.64A10.61,10.61,0,0,0,462,396.14Zm-.54,25.62a6.48,6.48,0,0,1-3.25,4,15.81,15.81,0,0,1-6.83,1.15,14.28,14.28,0,0,1-6.45-1.15,6.4,6.4,0,0,1-3.09-4,39,39,0,0,1,0-16.56,6.38,6.38,0,0,1,3.09-4,14.12,14.12,0,0,1,6.45-1.16,15.64,15.64,0,0,1,6.83,1.16,6.45,6.45,0,0,1,3.25,4,37.16,37.16,0,0,1,0,16.61Z" transform="translate(-11 -300.89)"/><path class="cls-1" d="M504.54,412.22a6,6,0,0,0,1.83-2.91,14.26,14.26,0,0,0,.53-4.3,23.09,23.09,0,0,0-.21-3.28,7.5,7.5,0,0,0-2.8-4.84q-3.06-2.26-9.68-2.26H478.52v37.64h15.69q6.62,0,9.68-2.21a6.55,6.55,0,0,0,2.15-2.74,11.64,11.64,0,0,0,.76-3c0-.53.05-1.12.05-1.77a17,17,0,0,0-.59-4.94,7.31,7.31,0,0,0-2.15-3.23,7.55,7.55,0,0,0-1.56-1l.43-.21A10.54,10.54,0,0,0,504.54,412.22Zm-3.71,10.48a3.57,3.57,0,0,1-.7,1.83,3.71,3.71,0,0,1-2.37,1.34l-.37.11a15.48,15.48,0,0,1-2.05.21H484.59v-9.68h11.13a11,11,0,0,1,3.06.44,2.49,2.49,0,0,1,1.62,1.34,9.9,9.9,0,0,1,.43,2Zm0-15.38a8.47,8.47,0,0,1-.38,1.56,2.14,2.14,0,0,1-1.4,1.19,7.94,7.94,0,0,1-2,.37H484.59v-9.73h10.75a15.48,15.48,0,0,1,2.05.21l.37.11a3.75,3.75,0,0,1,2.37,1.34,3.88,3.88,0,0,1,.7,1.83Z" transform="translate(-11 -300.89)"/><path class="cls-1" d="M541.77,394.64h-1.89a3.92,3.92,0,0,0-2.2,1.12,8.21,8.21,0,0,0-1.24,1.56l-1.18,2.31q-11.28,22.86-11.39,23c-.08.14-.17.22-.27.22a.34.34,0,0,1-.28-.16v-.06a4,4,0,0,1-.05-.75v-27.2H517.2l-.06,29v1.67q0,3.92,1.08,5.42a3.66,3.66,0,0,0,2.85,1.51h1.72a4.74,4.74,0,0,0,2.58-1.19,7.48,7.48,0,0,0,1.29-1.66c.22-.51.48-1.08.81-1.72.21-.44.48-.95.8-1.56l.38-.8.43-.87,1.83-3.6c1.47-3,2.71-5.45,3.7-7.42q4.2-8.44,4.25-8.49c.08-.14.16-.22.27-.22a.33.33,0,0,1,.27.16V405a1.66,1.66,0,0,1,.11.7v26.56h6.07V399.85a7.47,7.47,0,0,0-1.07-3.71A3.75,3.75,0,0,0,541.77,394.64Z" transform="translate(-11 -300.89)"/><path class="cls-1" d="M562.57,404.55a6,6,0,0,1,3.12-3.09,15.3,15.3,0,0,1,6.21-1H584v-5.81H570.56c-4.88,0-8.59,1.3-11.13,3.87s-3.82,6.26-3.82,11v7.85q0,7.14,3.82,11t11.13,3.87H584v-5.81H571.9a15.3,15.3,0,0,1-6.21-1,5.93,5.93,0,0,1-3.12-3.09,14.26,14.26,0,0,1-.88-5.51v-6.77A14.28,14.28,0,0,1,562.57,404.55Z" transform="translate(-11 -300.89)"/><path class="cls-1" d="M438.91,457.12a4.37,4.37,0,1,0,4.36,4.36A4.36,4.36,0,0,0,438.91,457.12Z" transform="translate(-11 -300.89)"/><path class="cls-1" d="M197.43,457.12a4.37,4.37,0,1,0,4.37,4.36A4.37,4.37,0,0,0,197.43,457.12Z" transform="translate(-11 -300.89)"/></svg>